<?xml version="1.0" encoding="utf-8"?>
<!-- Generator: Adobe Illustrator 25.4.1, SVG Export Plug-In . SVG Version: 6.00 Build 0)  -->
<svg version="1.1" id="Layer_1" xmlns="http://www.w3.org/2000/svg" xmlns:xlink="http://www.w3.org/1999/xlink" x="0px" y="0px"
	 viewBox="0 0 544.1 199.8" style="enable-background:new 0 0 544.1 199.8;" xml:space="preserve">
<style type="text/css">
	.st0{fill:#00ABCD;}
</style>
<g >
	<path d="M102.7,67.9h30.1V34.6c0-9.3-4.4-14-13.4-14H116c-8.9,0-13.4,4.7-13.4,14L102.7,67.9L102.7,67.9z M102.7,89.2l0.1,36.6
		c0,9.3,4.5,13.9,13.4,13.9h3.9c8.9,0,13.4-4.6,13.4-13.9v-18H154v17.1c0,23.5-11.4,35.5-34,35.5h-4.5c-22.6,0-34-11.9-34-32.7V38.2
		c0-26.3,11.4-38.2,34-38.2h4.5c22.6,0,34,11.9,34,35.4l-0.1,53.7L102.7,89.2L102.7,89.2z"/>
	<path d="M188.9,131.3c5.8,5.2,12.5,8.1,19.5,8.1c7.8,0,12.3-3.8,12.3-12.8v-93c0-9-4.5-12.8-12.3-12.8c-7,0-13.7,2.9-19.5,8.1
		V131.3z M167.7,1.8h21.2V12c5-5.5,13.6-11.9,25.9-11.9c18.1,0,27,12.5,27,31.1v98.2c0,18.6-8.9,31.1-27,31.1
		c-12.3,0-20.9-6.1-25.9-11.3v50.6h-21.2V1.8z"/>
	<path d="M305.3,132.2V80.5l-19.2,7.6c-7.8,3.2-10.3,7.3-10.3,16.3v23.8c0,7.6,3.6,11.3,10.3,11.3
		C292.5,139.5,298.4,137.2,305.3,132.2 M254.6,104c0-19.5,6.1-27.3,22.3-33.1l28.4-10.2V34.6c0-9.3-4.5-14.2-13.4-14.2h-3.4
		c-8.9,0-13.4,4.9-13.4,14.2v22.2h-20.6V35.5c0-23.5,11.4-35.4,34-35.4h4c22.6,0,34,11.9,34,35.4v123.2h-21.2v-9.9
		c-5.8,5.8-13.7,11.6-25.9,11.6c-17,0-24.8-10.2-24.8-27.6V104z"/>
	<path d="M412.1,158.7h-21.2V32.3c0-7.8-3.6-11.3-10-11.3c-5.8,0-12,2.3-19.5,7.8v129.9h-21.2V1.8h21.2V12c6.2-6.1,14.2-12,25.9-12
		c10.9,0,18.1,4.7,22,12.8C416.9,6.1,425.8,0,438,0c16.4,0,24.8,10.5,24.8,27.6v131h-21.2V32.3c0-7.8-3.6-11.3-10-11.3
		c-5.8,0-12,2.3-19.5,7.8L412.1,158.7L412.1,158.7z"/>
</g>
<polygon class="st0" points="0,70.2 0,91.4 54.4,144.7 54.4,115.2 18.8,80.5 54.4,45.1 54.4,16.2 "/>
<polygon class="st0" points="489.7,45.1 525.3,80.5 489.7,115.3 489.7,144.7 544.1,91.4 544.1,70.2 489.7,16.2 "/>
</svg>
